<?xml version="1.0" standalone="no"?><svg xmlns="http://www.w3.org/2000/svg" viewBox="0 0 1440 320">
  <path fill="#101010" fill-opacity="1" d="M0,64L12.6,53.3C25.3,43,51,21,76,21.3C101.1,21,126,43,152,80C176.8,117,202,171,227,176C252.6,181,278,139,303,128C328.4,117,354,139,379,154.7C404.2,171,429,181,455,181.3C480,181,505,171,531,176C555.8,181,581,203,606,181.3C631.6,160,657,96,682,106.7C707.4,117,733,203,758,229.3C783.2,256,808,224,834,186.7C858.9,149,884,107,909,96C934.7,85,960,107,985,96C1010.5,85,1036,43,1061,69.3C1086.3,96,1112,192,1137,224C1162.1,256,1187,224,1213,208C1237.9,192,1263,192,1288,192C1313.7,192,1339,192,1364,170.7C1389.5,149,1415,107,1427,85.3L1440,64L1440,320L1427.4,320C1414.7,320,1389,320,1364,320C1338.9,320,1314,320,1288,320C1263.2,320,1238,320,1213,320C1187.4,320,1162,320,1137,320C1111.6,320,1086,320,1061,320C1035.8,320,1011,320,985,320C960,320,935,320,909,320C884.2,320,859,320,834,320C808.4,320,783,320,758,320C732.6,320,707,320,682,320C656.8,320,632,320,606,320C581.1,320,556,320,531,320C505.3,320,480,320,455,320C429.5,320,404,320,379,320C353.7,320,328,320,303,320C277.9,320,253,320,227,320C202.1,320,177,320,152,320C126.3,320,101,320,76,320C50.5,320,25,320,13,320L0,320Z"></path>
</svg>